<svg width="896" height="203" viewBox="0 0 896 203" fill="none" xmlns="http://www.w3.org/2000/svg">
<path d="M115.834 185.166C60.1447 185.166 15 147.297 15 100.583C15 53.8692 60.1447 16 115.834 16C171.522 16 216.667 53.8692 216.667 100.583C216.667 147.297 171.522 185.166 115.834 185.166ZM105.75 134.416V151.333H125.917V134.416H136C149.922 134.416 161.209 124.95 161.209 113.27C161.209 108.51 159.333 104.118 156.169 100.583C159.333 97.049 161.209 92.6558 161.209 87.8954C161.209 76.2172 149.922 66.75 136 66.75H125.917V49.8333H105.75V66.75H75.5V134.416H105.75ZM95.6669 109.041H136C138.784 109.041 141.042 110.935 141.042 113.27C141.042 115.607 138.784 117.5 136 117.5H95.6669V109.041ZM95.6669 83.6662H136C138.784 83.6662 141.042 85.5601 141.042 87.8954C141.042 90.2316 138.784 92.1246 136 92.1246H95.6669V83.6662Z" fill="white"/>
<path d="M338.316 143V70.2461H367.418C375.426 70.2461 381.448 72.0039 385.484 75.5195C389.521 79.0026 391.539 83.4622 391.539 88.8984C391.539 93.1628 390.286 96.6296 387.779 99.2988C385.305 101.936 382.18 103.677 378.404 104.523V105.256C381.171 105.386 383.759 106.167 386.168 107.6C388.609 109.032 390.579 111.05 392.076 113.654C393.606 116.226 394.371 119.302 394.371 122.883C394.371 126.724 393.427 130.174 391.539 133.234C389.651 136.262 386.852 138.654 383.141 140.412C379.43 142.137 374.84 143 369.371 143H338.316ZM365.074 100.715C368.199 100.715 370.803 99.8848 372.887 98.2246C374.97 96.5645 376.012 94.3021 376.012 91.4375C376.012 88.8333 375.084 86.7337 373.229 85.1387C371.373 83.5111 368.753 82.6973 365.367 82.6973H353.648V100.715H365.074ZM366.197 130.451C370.494 130.451 373.619 129.621 375.572 127.961C377.558 126.301 378.551 124.104 378.551 121.369C378.551 118.374 377.477 115.917 375.328 113.996C373.18 112.043 370.266 111.066 366.588 111.066H353.648V130.451H366.197ZM416.93 143H400.426L425.572 70.2461H445.348L470.445 143H453.99L448.57 126.398H422.301L416.93 143ZM426.207 114.387H444.664L435.729 86.8477H435.143L426.207 114.387ZM479.137 143V70.2461H494.469V130.305H525.67V143H479.137ZM548.473 143H531.969L557.115 70.2461H576.891L601.988 143H585.533L580.113 126.398H553.844L548.473 143ZM557.75 114.387H576.207L567.271 86.8477H566.686L557.75 114.387ZM671.52 70.2461V143H658.189L626.598 97.248H626.012V143H610.68V70.2461H624.156L655.553 115.998H656.188V70.2461H671.52ZM716.783 143.977C710.305 143.977 704.511 142.512 699.4 139.582C694.29 136.652 690.253 132.404 687.291 126.838C684.361 121.271 682.896 114.549 682.896 106.672C682.896 98.7292 684.378 91.9746 687.34 86.4082C690.335 80.8418 694.387 76.5938 699.498 73.6641C704.641 70.7344 710.403 69.2695 716.783 69.2695C722.415 69.2695 727.477 70.3112 731.969 72.3945C736.493 74.4779 740.188 77.4889 743.053 81.4277C745.917 85.3665 747.675 90.1354 748.326 95.7344H732.799C732.213 91.7305 730.504 88.5892 727.672 86.3105C724.84 83.9993 721.324 82.8438 717.125 82.8438C711.526 82.8438 707.018 84.9271 703.6 89.0938C700.182 93.2279 698.473 99.0872 698.473 106.672C698.473 114.419 700.182 120.311 703.6 124.348C707.05 128.384 711.542 130.402 717.076 130.402C721.145 130.402 724.596 129.328 727.428 127.18C730.292 125.031 732.083 122.02 732.799 118.146H748.326C747.773 122.606 746.178 126.805 743.541 130.744C740.937 134.683 737.372 137.873 732.848 140.314C728.355 142.756 723.001 143.977 716.783 143.977ZM854.918 143H829.137V70.2461H855.113C862.438 70.2461 868.736 71.7109 874.01 74.6406C879.283 77.5378 883.336 81.7044 886.168 87.1406C889.033 92.5443 890.465 99.0221 890.465 106.574C890.465 114.159 889.033 120.669 886.168 126.105C883.336 131.542 879.267 135.725 873.961 138.654C868.655 141.551 862.307 143 854.918 143ZM844.469 129.816H854.234C861.103 129.816 866.311 127.977 869.859 124.299C873.408 120.62 875.182 114.712 875.182 106.574C875.182 98.5013 873.408 92.6257 869.859 88.9473C866.311 85.2689 861.103 83.4297 854.234 83.4297H844.469V129.816Z" fill="white"/>
<path d="M759 107H817.41" stroke="white" stroke-width="13"/>
<path d="M759 77H817.41" stroke="white" stroke-width="13"/>
<path d="M759 136H817.41" stroke="white" stroke-width="13"/>
<path d="M230 137H288.41" stroke="white" stroke-width="13"/>
<path d="M230 106H288.41" stroke="white" stroke-width="13"/>
<path d="M230 77H288.41" stroke="white" stroke-width="13"/>
</svg>
