<svg width="405" height="73" viewBox="0 0 405 73" fill="none" xmlns="http://www.w3.org/2000/svg">
<path d="M91.455 55.42V58H45.375V55.42H57.795C53.035 52.1 50.655 46.84 50.655 39.64V16.06H57.735V39.34C57.735 43.18 58.695 46.22 60.615 48.46C62.535 50.7 65.135 51.82 68.415 51.82C71.695 51.82 74.295 50.7 76.215 48.46C78.135 46.22 79.095 43.18 79.095 39.34V16.06H86.175V39.64C86.175 46.88 83.775 52.14 78.975 55.42H91.455ZM127.67 55.42V58H91.4297V55.42H106.01V22.54H93.2897V16.06H125.81V22.54H113.09V55.42H127.67ZM178.041 55.42V58H127.641V55.42H141.381C138.101 53.54 135.501 50.96 133.581 47.68C131.701 44.4 130.761 40.74 130.761 36.7C130.761 30.54 132.881 25.4 137.121 21.28C141.361 17.12 146.601 15.04 152.841 15.04C159.081 15.04 164.321 17.12 168.561 21.28C172.801 25.4 174.921 30.54 174.921 36.7C174.921 40.7 173.961 44.36 172.041 47.68C170.161 51 167.581 53.58 164.301 55.42H178.041ZM163.341 25.96C160.501 23 157.001 21.52 152.841 21.52C148.681 21.52 145.161 23 142.281 25.96C139.441 28.92 138.021 32.52 138.021 36.76C138.021 40.96 139.441 44.54 142.281 47.5C145.161 50.46 148.681 51.94 152.841 51.94C157.001 51.94 160.501 50.46 163.341 47.5C166.221 44.54 167.661 40.96 167.661 36.76C167.661 32.52 166.221 28.92 163.341 25.96ZM237.011 55.42V58H224.111V25.24L209.471 54.34H205.511L190.931 25.24V58H178.031V55.42H183.851V16.06H194.891L207.551 42.4L220.211 16.06H231.191V55.42H237.011ZM287.435 55.42V58H237.035V55.42H250.775C247.495 53.54 244.895 50.96 242.975 47.68C241.095 44.4 240.155 40.74 240.155 36.7C240.155 30.54 242.275 25.4 246.515 21.28C250.755 17.12 255.995 15.04 262.235 15.04C268.475 15.04 273.715 17.12 277.955 21.28C282.195 25.4 284.315 30.54 284.315 36.7C284.315 40.7 283.355 44.36 281.435 47.68C279.555 51 276.975 53.58 273.695 55.42H287.435ZM272.735 25.96C269.895 23 266.395 21.52 262.235 21.52C258.075 21.52 254.555 23 251.675 25.96C248.835 28.92 247.415 32.52 247.415 36.76C247.415 40.96 248.835 44.54 251.675 47.5C254.555 50.46 258.075 51.94 262.235 51.94C266.395 51.94 269.895 50.46 272.735 47.5C275.615 44.54 277.055 40.96 277.055 36.76C277.055 32.52 275.615 28.92 272.735 25.96ZM334.346 55.42V58H287.426V55.42H293.246V16.06H307.646C315.166 16.06 320.946 17.9 324.986 21.58C329.026 25.22 331.046 30.36 331.046 37C331.046 45.92 327.526 52.06 320.486 55.42H334.346ZM323.906 37C323.906 27.4 318.406 22.6 307.406 22.6H300.326V51.34H308.186C313.266 51.34 317.146 50.14 319.826 47.74C322.546 45.3 323.906 41.72 323.906 37ZM384.759 55.42V58H334.359V55.42H348.099C344.819 53.54 342.219 50.96 340.299 47.68C338.419 44.4 337.479 40.74 337.479 36.7C337.479 30.54 339.599 25.4 343.839 21.28C348.079 17.12 353.319 15.04 359.559 15.04C365.799 15.04 371.039 17.12 375.279 21.28C379.519 25.4 381.639 30.54 381.639 36.7C381.639 40.7 380.679 44.36 378.759 47.68C376.879 51 374.299 53.58 371.019 55.42H384.759ZM370.059 25.96C367.219 23 363.719 21.52 359.559 21.52C355.399 21.52 351.879 23 348.999 25.96C346.159 28.92 344.739 32.52 344.739 36.76C344.739 40.96 346.159 44.54 348.999 47.5C351.879 50.46 355.399 51.94 359.559 51.94C363.719 51.94 367.219 50.46 370.059 47.5C372.939 44.54 374.379 40.96 374.379 36.76C374.379 32.52 372.939 28.92 370.059 25.96Z" fill="black"/>
<path d="M56.34 55.42V58H42.96L38.76 48.46H17.76L13.56 58H0.18V55.42H7.14L24.48 16.06H32.04L49.38 55.42H56.34ZM35.88 41.92L28.26 24.64L20.64 41.92H35.88Z" fill="#110E74"/>
</svg>
